<svg xmlns="http://www.w3.org/2000/svg" width="2.422" height="3.349" viewBox="0 0 2.422 3.349"><defs><style>.a{fill:#3d8f85;}</style></defs><g transform="translate(0 0)"><g transform="translate(0 0)"><path class="a" d="M93.621,2.374h-.036v-.46a.92.92,0,0,0-1.839,0v.46H91.71a.256.256,0,0,0-.256.256V3.837a.507.507,0,0,0,.507.507H93.37a.507.507,0,0,0,.507-.507V2.63A.256.256,0,0,0,93.621,2.374Zm-1.655-.46h0a.7.7,0,1,1,1.4,0v.46h-.108V1.91a.591.591,0,0,0-1.182,0v.464h-.108Zm1.07,0v.464h-.741V1.91a.371.371,0,1,1,.741,0Zm.62,1.927h0a.286.286,0,0,1-.286.286H91.961a.286.286,0,0,1-.286-.286V2.63a.035.035,0,0,1,.035-.035h1.911a.035.035,0,0,1,.035.035V3.837Z" transform="translate(-91.454 -0.994)"/></g></g></svg>